<mxfile host="Electron" agent="Mozilla/5.0 (X11; Linux x86_64) AppleWebKit/537.36 (KHTML, like Gecko) draw.io/26.0.9 Chrome/128.0.6613.186 Electron/32.2.5 Safari/537.36" version="26.0.9" pages="2">
  <diagram name="Page-1" id="mUvsX1FCUK9cMkkjFUS0">
    <mxGraphModel dx="1100" dy="517" grid="1" gridSize="10" guides="1" tooltips="1" connect="1" arrows="1" fold="1" page="1" pageScale="1" pageWidth="1100" pageHeight="850" math="0" shadow="0">
      <root>
        <mxCell id="0" />
        <mxCell id="1" parent="0" />
        <mxCell id="ISF8ErJbANwZPm2cTQLr-1" value="" style="ellipse;shape=cloud;whiteSpace=wrap;html=1;" vertex="1" parent="1">
          <mxGeometry x="50" y="20" width="460" height="410" as="geometry" />
        </mxCell>
        <mxCell id="ISF8ErJbANwZPm2cTQLr-2" value="RAM" style="text;html=1;align=center;verticalAlign=middle;whiteSpace=wrap;rounded=0;" vertex="1" parent="1">
          <mxGeometry x="120" y="80" width="60" height="30" as="geometry" />
        </mxCell>
        <mxCell id="ISF8ErJbANwZPm2cTQLr-4" value="HDD / SSD" style="shape=cylinder3;whiteSpace=wrap;html=1;boundedLbl=1;backgroundOutline=1;size=15;" vertex="1" parent="1">
          <mxGeometry x="550" y="55" width="270" height="80" as="geometry" />
        </mxCell>
        <mxCell id="ISF8ErJbANwZPm2cTQLr-5" value="CPU" style="shape=process;whiteSpace=wrap;html=1;backgroundOutline=1;" vertex="1" parent="1">
          <mxGeometry x="600" y="320" width="270" height="80" as="geometry" />
        </mxCell>
        <mxCell id="ISF8ErJbANwZPm2cTQLr-6" value="" style="rounded=0;whiteSpace=wrap;html=1;fillColor=#6d8764;fontColor=#ffffff;strokeColor=#3A5431;" vertex="1" parent="1">
          <mxGeometry x="600" y="240" width="40" height="40" as="geometry" />
        </mxCell>
        <mxCell id="ISF8ErJbANwZPm2cTQLr-7" value="" style="rounded=0;whiteSpace=wrap;html=1;fillColor=#6d8764;fontColor=#ffffff;strokeColor=#3A5431;" vertex="1" parent="1">
          <mxGeometry x="640" y="240" width="40" height="40" as="geometry" />
        </mxCell>
        <mxCell id="ISF8ErJbANwZPm2cTQLr-8" value="" style="rounded=0;whiteSpace=wrap;html=1;fillColor=#6d8764;fontColor=#ffffff;strokeColor=#3A5431;" vertex="1" parent="1">
          <mxGeometry x="680" y="240" width="40" height="40" as="geometry" />
        </mxCell>
        <mxCell id="ISF8ErJbANwZPm2cTQLr-9" value="" style="rounded=0;whiteSpace=wrap;html=1;fillColor=#6d8764;fontColor=#ffffff;strokeColor=#3A5431;" vertex="1" parent="1">
          <mxGeometry x="720" y="240" width="40" height="40" as="geometry" />
        </mxCell>
        <mxCell id="ISF8ErJbANwZPm2cTQLr-10" value="" style="rounded=0;whiteSpace=wrap;html=1;fillColor=#d80073;fontColor=#ffffff;strokeColor=#A50040;" vertex="1" parent="1">
          <mxGeometry x="760" y="240" width="40" height="40" as="geometry" />
        </mxCell>
        <mxCell id="ISF8ErJbANwZPm2cTQLr-11" value="" style="rounded=0;whiteSpace=wrap;html=1;fillColor=#1ba1e2;fontColor=#ffffff;strokeColor=#006EAF;" vertex="1" parent="1">
          <mxGeometry x="800" y="240" width="40" height="40" as="geometry" />
        </mxCell>
        <mxCell id="ISF8ErJbANwZPm2cTQLr-12" style="edgeStyle=orthogonalEdgeStyle;rounded=0;orthogonalLoop=1;jettySize=auto;html=1;entryX=0.366;entryY=1.006;entryDx=0;entryDy=0;entryPerimeter=0;" edge="1" parent="1" source="ISF8ErJbANwZPm2cTQLr-5" target="ISF8ErJbANwZPm2cTQLr-10">
          <mxGeometry relative="1" as="geometry" />
        </mxCell>
        <mxCell id="ISF8ErJbANwZPm2cTQLr-13" value="address" style="rhombus;whiteSpace=wrap;html=1;" vertex="1" parent="1">
          <mxGeometry x="300" y="210" width="80" height="80" as="geometry" />
        </mxCell>
        <mxCell id="ISF8ErJbANwZPm2cTQLr-14" value="address" style="rhombus;whiteSpace=wrap;html=1;" vertex="1" parent="1">
          <mxGeometry x="560" y="70" width="80" height="80" as="geometry" />
        </mxCell>
        <mxCell id="ISF8ErJbANwZPm2cTQLr-15" style="edgeStyle=orthogonalEdgeStyle;rounded=0;orthogonalLoop=1;jettySize=auto;html=1;entryX=0.694;entryY=0.24;entryDx=0;entryDy=0;entryPerimeter=0;" edge="1" parent="1" source="ISF8ErJbANwZPm2cTQLr-6" target="ISF8ErJbANwZPm2cTQLr-13">
          <mxGeometry relative="1" as="geometry" />
        </mxCell>
        <mxCell id="ISF8ErJbANwZPm2cTQLr-16" value="&amp;nbsp;ptr&amp;nbsp;" style="edgeLabel;html=1;align=center;verticalAlign=middle;resizable=0;points=[];" vertex="1" connectable="0" parent="ISF8ErJbANwZPm2cTQLr-15">
          <mxGeometry x="-0.6816" y="1" relative="1" as="geometry">
            <mxPoint as="offset" />
          </mxGeometry>
        </mxCell>
        <mxCell id="ISF8ErJbANwZPm2cTQLr-17" value="BASIC&lt;br&gt;&lt;div&gt;&lt;br/&gt;&lt;/div&gt;" style="rounded=1;whiteSpace=wrap;html=1;fillColor=#60a917;fontColor=#ffffff;strokeColor=#2D7600;" vertex="1" parent="1">
          <mxGeometry x="480" y="440" width="120" height="60" as="geometry" />
        </mxCell>
        <mxCell id="ISF8ErJbANwZPm2cTQLr-18" value="1 Step&lt;br&gt;2 Step&lt;br&gt;3 Step" style="shape=note;whiteSpace=wrap;html=1;backgroundOutline=1;darkOpacity=0.05;" vertex="1" parent="1">
          <mxGeometry x="330" y="450" width="80" height="100" as="geometry" />
        </mxCell>
        <mxCell id="ISF8ErJbANwZPm2cTQLr-19" style="edgeStyle=orthogonalEdgeStyle;rounded=0;orthogonalLoop=1;jettySize=auto;html=1;entryX=1;entryY=0.447;entryDx=0;entryDy=0;entryPerimeter=0;" edge="1" parent="1" source="ISF8ErJbANwZPm2cTQLr-17" target="ISF8ErJbANwZPm2cTQLr-18">
          <mxGeometry relative="1" as="geometry" />
        </mxCell>
        <mxCell id="ISF8ErJbANwZPm2cTQLr-20" style="edgeStyle=orthogonalEdgeStyle;rounded=0;orthogonalLoop=1;jettySize=auto;html=1;entryX=0.479;entryY=1.038;entryDx=0;entryDy=0;entryPerimeter=0;" edge="1" parent="1" source="ISF8ErJbANwZPm2cTQLr-17" target="ISF8ErJbANwZPm2cTQLr-5">
          <mxGeometry relative="1" as="geometry" />
        </mxCell>
        <mxCell id="ISF8ErJbANwZPm2cTQLr-31" style="edgeStyle=orthogonalEdgeStyle;rounded=0;orthogonalLoop=1;jettySize=auto;html=1;entryX=0;entryY=0.5;entryDx=0;entryDy=0;" edge="1" parent="1" source="ISF8ErJbANwZPm2cTQLr-21" target="ISF8ErJbANwZPm2cTQLr-30">
          <mxGeometry relative="1" as="geometry" />
        </mxCell>
        <mxCell id="ISF8ErJbANwZPm2cTQLr-21" value="1 Step&lt;br&gt;2 Step&lt;br&gt;3 Step" style="shape=note;whiteSpace=wrap;html=1;backgroundOutline=1;darkOpacity=0.05;" vertex="1" parent="1">
          <mxGeometry x="520" y="600" width="120" height="120" as="geometry" />
        </mxCell>
        <mxCell id="ISF8ErJbANwZPm2cTQLr-22" value="&lt;div&gt;JVM&lt;/div&gt;" style="rounded=1;whiteSpace=wrap;html=1;fillColor=#60a917;fontColor=#ffffff;strokeColor=#2D7600;" vertex="1" parent="1">
          <mxGeometry x="880" y="470" width="120" height="60" as="geometry" />
        </mxCell>
        <mxCell id="ISF8ErJbANwZPm2cTQLr-23" style="edgeStyle=orthogonalEdgeStyle;rounded=0;orthogonalLoop=1;jettySize=auto;html=1;entryX=0.644;entryY=1.013;entryDx=0;entryDy=0;entryPerimeter=0;" edge="1" parent="1" source="ISF8ErJbANwZPm2cTQLr-22" target="ISF8ErJbANwZPm2cTQLr-5">
          <mxGeometry relative="1" as="geometry" />
        </mxCell>
        <mxCell id="ISF8ErJbANwZPm2cTQLr-24" value="" style="rounded=0;whiteSpace=wrap;html=1;fillColor=#6d8764;fontColor=#ffffff;strokeColor=#3A5431;" vertex="1" parent="1">
          <mxGeometry x="960" y="760" width="40" height="40" as="geometry" />
        </mxCell>
        <mxCell id="ISF8ErJbANwZPm2cTQLr-25" value="" style="rounded=0;whiteSpace=wrap;html=1;fillColor=#6d8764;fontColor=#ffffff;strokeColor=#3A5431;" vertex="1" parent="1">
          <mxGeometry x="960" y="720" width="40" height="40" as="geometry" />
        </mxCell>
        <mxCell id="ISF8ErJbANwZPm2cTQLr-26" value="" style="rounded=0;whiteSpace=wrap;html=1;fillColor=#6d8764;fontColor=#ffffff;strokeColor=#3A5431;" vertex="1" parent="1">
          <mxGeometry x="960" y="680" width="40" height="40" as="geometry" />
        </mxCell>
        <mxCell id="ISF8ErJbANwZPm2cTQLr-27" value="" style="rounded=0;whiteSpace=wrap;html=1;fillColor=#6d8764;fontColor=#ffffff;strokeColor=#3A5431;" vertex="1" parent="1">
          <mxGeometry x="960" y="640" width="40" height="40" as="geometry" />
        </mxCell>
        <mxCell id="ISF8ErJbANwZPm2cTQLr-28" value="" style="rounded=0;whiteSpace=wrap;html=1;fillColor=#d80073;fontColor=#ffffff;strokeColor=#A50040;" vertex="1" parent="1">
          <mxGeometry x="960" y="600" width="40" height="40" as="geometry" />
        </mxCell>
        <mxCell id="ISF8ErJbANwZPm2cTQLr-33" style="edgeStyle=orthogonalEdgeStyle;rounded=0;orthogonalLoop=1;jettySize=auto;html=1;" edge="1" parent="1" source="ISF8ErJbANwZPm2cTQLr-29">
          <mxGeometry relative="1" as="geometry">
            <mxPoint x="930" y="540" as="targetPoint" />
          </mxGeometry>
        </mxCell>
        <mxCell id="ISF8ErJbANwZPm2cTQLr-29" value="" style="rounded=0;whiteSpace=wrap;html=1;fillColor=#1ba1e2;fontColor=#ffffff;strokeColor=#006EAF;" vertex="1" parent="1">
          <mxGeometry x="960" y="560" width="40" height="40" as="geometry" />
        </mxCell>
        <mxCell id="ISF8ErJbANwZPm2cTQLr-32" style="edgeStyle=orthogonalEdgeStyle;rounded=0;orthogonalLoop=1;jettySize=auto;html=1;entryX=0;entryY=0.75;entryDx=0;entryDy=0;" edge="1" parent="1" source="ISF8ErJbANwZPm2cTQLr-30" target="ISF8ErJbANwZPm2cTQLr-24">
          <mxGeometry relative="1" as="geometry" />
        </mxCell>
        <mxCell id="ISF8ErJbANwZPm2cTQLr-30" value="Compilator&lt;br&gt;&lt;br&gt;ByteCode" style="rounded=1;whiteSpace=wrap;html=1;fillColor=#60a917;fontColor=#ffffff;strokeColor=#2D7600;" vertex="1" parent="1">
          <mxGeometry x="730" y="640" width="120" height="60" as="geometry" />
        </mxCell>
      </root>
    </mxGraphModel>
  </diagram>
  <diagram id="FDs9aZ8qsGk3vQdgbjdA" name="Page-2">
    <mxGraphModel dx="1100" dy="517" grid="1" gridSize="10" guides="1" tooltips="1" connect="1" arrows="1" fold="1" page="1" pageScale="1" pageWidth="1100" pageHeight="850" math="0" shadow="0">
      <root>
        <mxCell id="0" />
        <mxCell id="1" parent="0" />
        <mxCell id="MPmI5A0yAgjCRxa6a5NV-1" value="0" style="rounded=1;whiteSpace=wrap;html=1;" vertex="1" parent="1">
          <mxGeometry x="160" y="120" width="120" height="60" as="geometry" />
        </mxCell>
        <mxCell id="MPmI5A0yAgjCRxa6a5NV-2" value="1" style="rounded=1;whiteSpace=wrap;html=1;" vertex="1" parent="1">
          <mxGeometry x="280" y="120" width="120" height="60" as="geometry" />
        </mxCell>
        <mxCell id="MPmI5A0yAgjCRxa6a5NV-3" value="2" style="rounded=1;whiteSpace=wrap;html=1;" vertex="1" parent="1">
          <mxGeometry x="400" y="120" width="120" height="60" as="geometry" />
        </mxCell>
        <mxCell id="MPmI5A0yAgjCRxa6a5NV-4" value="3" style="rounded=1;whiteSpace=wrap;html=1;" vertex="1" parent="1">
          <mxGeometry x="520" y="120" width="120" height="60" as="geometry" />
        </mxCell>
        <mxCell id="MPmI5A0yAgjCRxa6a5NV-6" style="edgeStyle=orthogonalEdgeStyle;rounded=0;orthogonalLoop=1;jettySize=auto;html=1;entryX=0;entryY=0;entryDx=0;entryDy=0;" edge="1" parent="1" source="MPmI5A0yAgjCRxa6a5NV-5" target="MPmI5A0yAgjCRxa6a5NV-1">
          <mxGeometry relative="1" as="geometry" />
        </mxCell>
        <mxCell id="MPmI5A0yAgjCRxa6a5NV-7" style="edgeStyle=orthogonalEdgeStyle;rounded=0;orthogonalLoop=1;jettySize=auto;html=1;entryX=0;entryY=0;entryDx=0;entryDy=0;" edge="1" parent="1" source="MPmI5A0yAgjCRxa6a5NV-5" target="MPmI5A0yAgjCRxa6a5NV-3">
          <mxGeometry relative="1" as="geometry" />
        </mxCell>
        <mxCell id="MPmI5A0yAgjCRxa6a5NV-5" value="ArrayPtr" style="shape=step;perimeter=stepPerimeter;whiteSpace=wrap;html=1;fixedSize=1;" vertex="1" parent="1">
          <mxGeometry x="20" width="120" height="80" as="geometry" />
        </mxCell>
        <mxCell id="MPmI5A0yAgjCRxa6a5NV-8" value="4" style="rounded=1;whiteSpace=wrap;html=1;" vertex="1" parent="1">
          <mxGeometry x="640" y="120" width="120" height="60" as="geometry" />
        </mxCell>
        <mxCell id="MPmI5A0yAgjCRxa6a5NV-9" value="5" style="rounded=1;whiteSpace=wrap;html=1;" vertex="1" parent="1">
          <mxGeometry x="760" y="120" width="120" height="60" as="geometry" />
        </mxCell>
      </root>
    </mxGraphModel>
  </diagram>
</mxfile>
